<svg xmlns="http://www.w3.org/2000/svg" xmlns:xlink="http://www.w3.org/1999/xlink" viewBox="0 0 152.67 219.69"><defs><style>.cls-1{isolation:isolate;}.cls-2{fill:url(#linear-gradient);}.cls-3{fill:url(#linear-gradient-2);}.cls-4{fill:url(#linear-gradient-3);}.cls-5{fill:url(#linear-gradient-4);}.cls-6{fill:url(#linear-gradient-5);}.cls-7{fill:url(#linear-gradient-6);}.cls-8{fill:url(#linear-gradient-7);}.cls-9{fill:url(#linear-gradient-8);}.cls-10,.cls-12{mix-blend-mode:overlay;}.cls-10{fill:url(#linear-gradient-9);}.cls-11{opacity:0.5;mix-blend-mode:multiply;fill:url(#radial-gradient);}.cls-13{fill:url(#linear-gradient-10);}</style><linearGradient id="linear-gradient" x1="70.43" y1="167.08" x2="80.9" y2="167.08" gradientUnits="userSpaceOnUse"><stop offset="0" stop-color="#7f07a9"/><stop offset="0.99" stop-color="#4a1da1"/></linearGradient><linearGradient id="linear-gradient-2" x1="58.21" y1="192.12" x2="94.46" y2="192.12" xlink:href="#linear-gradient"/><linearGradient id="linear-gradient-3" x1="0" y1="76.33" x2="152.67" y2="76.33" xlink:href="#linear-gradient"/><linearGradient id="linear-gradient-4" x1="93.68" y1="16" x2="26.45" y2="249.91" gradientUnits="userSpaceOnUse"><stop offset="0" stop-color="#645ca5"/><stop offset="0.68" stop-color="#fff"/></linearGradient><linearGradient id="linear-gradient-5" x1="63.23" y1="53.24" x2="100.69" y2="119.24" gradientUnits="userSpaceOnUse"><stop offset="0" stop-color="#c9cacc"/><stop offset="0.68" stop-color="#fff"/></linearGradient><linearGradient id="linear-gradient-6" x1="73.13" y1="137.71" x2="81.54" y2="-23.36" xlink:href="#linear-gradient-5"/><linearGradient id="linear-gradient-7" x1="38.36" y1="76.33" x2="114.31" y2="76.33" xlink:href="#linear-gradient"/><linearGradient id="linear-gradient-8" x1="50.32" y1="76.33" x2="102.35" y2="76.33" xlink:href="#linear-gradient-5"/><linearGradient id="linear-gradient-9" x1="2.72" y1="72.26" x2="13.42" y2="72.26" xlink:href="#linear-gradient-5"/><radialGradient id="radial-gradient" cx="2950.06" cy="-7950.94" r="321.44" gradientTransform="translate(-395.08 451.63) scale(0.16 0.03)" gradientUnits="userSpaceOnUse"><stop offset="0" stop-color="#231f20"/><stop offset="1" stop-color="#717375" stop-opacity="0"/></radialGradient><linearGradient id="linear-gradient-10" x1="59.94" y1="178.17" x2="74.34" y2="178.17" xlink:href="#linear-gradient-5"/></defs><title>marker</title><g class="cls-1"><g id="Layer_2" data-name="Layer 2"><g id="OBJECTS"><rect class="cls-2" x="70.43" y="146.92" width="10.48" height="40.31"/><path class="cls-3" d="M88.29,175.65c5.5,0,7.75,3.9,5,8.66l-12,20.7c-2.75,4.76-7.25,4.76-10,0l-12-20.7c-2.75-4.76-.5-8.66,5-8.66Z"/><circle class="cls-4" cx="76.33" cy="76.33" r="76.33"/><circle class="cls-5" cx="76.33" cy="76.33" r="63.19"/><circle class="cls-6" cx="76.33" cy="76.33" r="58.11"/><circle class="cls-7" cx="76.33" cy="76.33" r="50.58"/><circle class="cls-8" cx="76.33" cy="76.33" r="37.97"/><circle class="cls-9" cx="76.33" cy="76.33" r="26.02"/><path class="cls-10" d="M13.42,38.69S-7.89,71.36,9.64,105.82C9.64,105.82-2.77,74.65,13.42,38.69Z"/><ellipse class="cls-11" cx="76.34" cy="209.92" rx="51.36" ry="9.77"/><g class="cls-12"><path class="cls-13" d="M73.34,155.42c.33,3.92.52,7.83.68,11.75L74.2,173l.1,5.88,0,1h-1c-3,0-6,.06-9,0h-.09a4.78,4.78,0,0,0-1.34.09,1.5,1.5,0,0,0-.86.44c0,.05-.07.08-.08.14a.72.72,0,0,1-.06.18,1.85,1.85,0,0,0,0,.53,2.45,2.45,0,0,0,.18.63,3.73,3.73,0,0,0,.3.66l1.51,3c.49,1,1,2,1.46,3s.91,2,1.35,3.07.91,2,1.31,3.08c.83,2.07,1.65,4.13,2.38,6.24q-1.63-2.92-3.19-5.86c-1-2-2.12-3.88-3.14-5.84-.5-1-1.1-1.93-1.64-2.89l-1.64-2.91a5.36,5.36,0,0,1-.41-.84,4.15,4.15,0,0,1-.3-1A3.63,3.63,0,0,1,60,180.5a2.76,2.76,0,0,1,.48-1.21,3.35,3.35,0,0,1,2-1.19,6.62,6.62,0,0,1,2-.16h-.09c3,0,6,0,9,0l-1,1,.1-5.87.18-5.87C72.82,163.26,73,159.34,73.34,155.42Z"/></g></g></g></g></svg>