<svg xmlns="http://www.w3.org/2000/svg" viewBox="0 0 679.29 87.64"><defs><style>.cls-1{fill:#4d4d4d;stroke:#4d4d4d;stroke-miterlimit:10;}</style></defs><title>Asset 5</title><g id="Layer_2" data-name="Layer 2"><g id="Layer_1-2" data-name="Layer 1"><path class="cls-1" d="M.5,28.82H10.58V37.7h.24a9.39,9.39,0,0,1,1.86-3,19.1,19.1,0,0,1,3.84-3.42A23.75,23.75,0,0,1,22,28.52a20.68,20.68,0,0,1,7-1.14A20.15,20.15,0,0,1,39.74,30a19.66,19.66,0,0,1,7.08,7.92A18.21,18.21,0,0,1,54.62,30a21.79,21.79,0,0,1,10.2-2.64,23.59,23.59,0,0,1,10.8,2.16,17.41,17.41,0,0,1,6.6,5.7,21.78,21.78,0,0,1,3.3,8,47.35,47.35,0,0,1,.9,9.3V85.7H75.62V54a45.1,45.1,0,0,0-.42-6.24,14.47,14.47,0,0,0-1.74-5.28,9.93,9.93,0,0,0-3.72-3.66,12.72,12.72,0,0,0-6.36-1.38q-7.8,0-11.16,4.8T48.86,54.62V85.7H38.06V55.94a60.36,60.36,0,0,0-.42-7.44A17.49,17.49,0,0,0,36,42.68a9.28,9.28,0,0,0-3.6-3.84,12.38,12.38,0,0,0-6.3-1.38,14.22,14.22,0,0,0-5.58,1.14A13.22,13.22,0,0,0,15.74,42a16.58,16.58,0,0,0-3.24,5.82,26,26,0,0,0-1.2,8.34V85.7H.5Z"/><path class="cls-1" d="M103,35.78a30.08,30.08,0,0,1,10.56-6.3,36.16,36.16,0,0,1,12-2.1,32.93,32.93,0,0,1,10.74,1.56,20.91,20.91,0,0,1,7.38,4.2,16.59,16.59,0,0,1,4.26,6.06,18.93,18.93,0,0,1,1.38,7.14v29q0,3,.12,5.52t.36,4.8h-9.6q-.36-4.32-.36-8.64h-.24a20.68,20.68,0,0,1-8.52,7.8,26.88,26.88,0,0,1-11.4,2.28,26.16,26.16,0,0,1-7.56-1.08,18.45,18.45,0,0,1-6.3-3.24,15.44,15.44,0,0,1-4.26-5.34A16.55,16.55,0,0,1,100,70.1a16.4,16.4,0,0,1,2.46-9.24,18.62,18.62,0,0,1,6.72-6.06,32.42,32.42,0,0,1,10-3.36,69.21,69.21,0,0,1,12.18-1h7.92V48a11.86,11.86,0,0,0-.84-4.32,11.68,11.68,0,0,0-2.52-3.9,12,12,0,0,0-4.2-2.76,16,16,0,0,0-6-1,22.15,22.15,0,0,0-5.46.6,24.24,24.24,0,0,0-4.26,1.5,18.73,18.73,0,0,0-3.48,2.1q-1.56,1.2-3,2.28Zm30.48,22.56a75.8,75.8,0,0,0-7.86.42,30.81,30.81,0,0,0-7.32,1.62,14.1,14.1,0,0,0-5.4,3.36,7.59,7.59,0,0,0-2.1,5.52q0,4.92,3.3,7.08T123,78.5a17.32,17.32,0,0,0,7.56-1.5,14.19,14.19,0,0,0,5-3.9,15.12,15.12,0,0,0,2.76-5.34,21.14,21.14,0,0,0,.84-5.82v-3.6Z"/><path class="cls-1" d="M165,28.82h10.8v8.76h.24a15.44,15.44,0,0,1,2.88-4.14,19.3,19.3,0,0,1,4-3.18,21.31,21.31,0,0,1,4.86-2.1,18.56,18.56,0,0,1,5.28-.78,15.12,15.12,0,0,1,4.8.72l-.48,11.64q-1.32-.36-2.64-.6a14.82,14.82,0,0,0-2.64-.24q-7.92,0-12.12,4.44t-4.2,13.8V85.7H165Z"/><path class="cls-1" d="M207.74,8.42a7.62,7.62,0,0,1,2.34-5.58,7.82,7.82,0,0,1,11.16,0,7.62,7.62,0,0,1,2.34,5.58A7.62,7.62,0,0,1,221.24,14a7.82,7.82,0,0,1-11.16,0A7.62,7.62,0,0,1,207.74,8.42Zm2.52,20.4h10.8V85.7h-10.8Z"/><path class="cls-1" d="M238.46,35.78A30.08,30.08,0,0,1,249,29.48a36.16,36.16,0,0,1,12-2.1,32.93,32.93,0,0,1,10.74,1.56,20.91,20.91,0,0,1,7.38,4.2,16.59,16.59,0,0,1,4.26,6.06,18.93,18.93,0,0,1,1.38,7.14v29q0,3,.12,5.52t.36,4.8h-9.6q-.36-4.32-.36-8.64h-.24a20.68,20.68,0,0,1-8.52,7.8,26.88,26.88,0,0,1-11.4,2.28,26.16,26.16,0,0,1-7.56-1.08,18.45,18.45,0,0,1-6.3-3.24A15.44,15.44,0,0,1,237,77.48a16.55,16.55,0,0,1-1.56-7.38,16.4,16.4,0,0,1,2.46-9.24,18.62,18.62,0,0,1,6.72-6.06,32.42,32.42,0,0,1,10-3.36,69.21,69.21,0,0,1,12.18-1h7.92V48a11.86,11.86,0,0,0-.84-4.32,11.68,11.68,0,0,0-2.52-3.9,12,12,0,0,0-4.2-2.76,16,16,0,0,0-6-1,22.15,22.15,0,0,0-5.46.6,24.24,24.24,0,0,0-4.26,1.5,18.73,18.73,0,0,0-3.48,2.1q-1.56,1.2-3,2.28Zm30.48,22.56a75.8,75.8,0,0,0-7.86.42,30.81,30.81,0,0,0-7.32,1.62,14.1,14.1,0,0,0-5.4,3.36,7.59,7.59,0,0,0-2.1,5.52q0,4.92,3.3,7.08t8.94,2.16a17.32,17.32,0,0,0,7.56-1.5,14.19,14.19,0,0,0,5-3.9,15.12,15.12,0,0,0,2.76-5.34,21.14,21.14,0,0,0,.84-5.82v-3.6Z"/><path class="cls-1" d="M300.5,28.82h10.8v8.76h.24a15.92,15.92,0,0,1,7.08-7.38,23.45,23.45,0,0,1,11.64-2.82,24.7,24.7,0,0,1,7.86,1.26,17.75,17.75,0,0,1,6.6,3.9,18.84,18.84,0,0,1,4.5,6.78,25.94,25.94,0,0,1,1.68,9.78V85.7H340.1V52.1A19,19,0,0,0,339,45.32a12.4,12.4,0,0,0-2.88-4.56A10.83,10.83,0,0,0,332,38.24a15.28,15.28,0,0,0-4.86-.78,17.63,17.63,0,0,0-6.24,1.08,13,13,0,0,0-5,3.42,16.13,16.13,0,0,0-3.36,5.94,27,27,0,0,0-1.2,8.52V85.7H300.5Z"/><path class="cls-1" d="M430.82,43.1a16.6,16.6,0,0,0-4.74-4,13.66,13.66,0,0,0-6.9-1.62,13.14,13.14,0,0,0-6.66,1.62,5.17,5.17,0,0,0-2.82,4.74,5.41,5.41,0,0,0,1.62,4.08,12.76,12.76,0,0,0,3.84,2.52,22.37,22.37,0,0,0,4.74,1.44l4.32.84a50.4,50.4,0,0,1,6.54,2A18.14,18.14,0,0,1,436,57.86a13.54,13.54,0,0,1,3.48,4.68,16.11,16.11,0,0,1,1.26,6.72,15.76,15.76,0,0,1-2,8.22,17.21,17.21,0,0,1-5.28,5.58,22.21,22.21,0,0,1-7.38,3.12,36.86,36.86,0,0,1-8.34,1A32.94,32.94,0,0,1,405.32,85a22.33,22.33,0,0,1-9.54-7.92l8.16-6.72A33.51,33.51,0,0,0,409.82,75a14.56,14.56,0,0,0,7.92,2,21,21,0,0,0,4.14-.42,12.76,12.76,0,0,0,3.72-1.32A8.14,8.14,0,0,0,428.24,73a5.21,5.21,0,0,0,1-3.18,5.48,5.48,0,0,0-1.5-4,10.9,10.9,0,0,0-3.6-2.46A26.23,26.23,0,0,0,419.72,62q-2.34-.54-4.14-.9-3.48-.84-6.6-1.92a20.05,20.05,0,0,1-5.52-2.88,13.28,13.28,0,0,1-3.84-4.56,14.67,14.67,0,0,1-1.44-6.84A15.5,15.5,0,0,1,400,37.16,16.53,16.53,0,0,1,405,31.7a22.26,22.26,0,0,1,7-3.24,29.33,29.33,0,0,1,7.86-1.08,28.89,28.89,0,0,1,11,2.16,17.49,17.49,0,0,1,8.4,7.2Z"/><path class="cls-1" d="M462,61.22A14.26,14.26,0,0,0,463.63,68a16.84,16.84,0,0,0,4.26,5.22A19.66,19.66,0,0,0,474,76.58a21.9,21.9,0,0,0,7.2,1.2A16.11,16.11,0,0,0,490,75.44a28.23,28.23,0,0,0,6.84-6.18L505,75.5q-9,11.64-25.2,11.64a31.34,31.34,0,0,1-12.18-2.28,26.47,26.47,0,0,1-9.24-6.3,27.9,27.9,0,0,1-5.82-9.48,33.47,33.47,0,0,1-2-11.82,31.08,31.08,0,0,1,2.22-11.82A29.31,29.31,0,0,1,458.83,36a27.93,27.93,0,0,1,9.3-6.3,29.94,29.94,0,0,1,11.76-2.28A28.12,28.12,0,0,1,492.67,30a25.28,25.28,0,0,1,8.58,6.9,27.27,27.27,0,0,1,4.86,9.6,40,40,0,0,1,1.5,10.86v3.84Zm34.08-8.64A22.87,22.87,0,0,0,495,46a14.56,14.56,0,0,0-3.06-5.22,14.11,14.11,0,0,0-5.1-3.48A18.66,18.66,0,0,0,479.65,36a17.35,17.35,0,0,0-7.26,1.5,17.69,17.69,0,0,0-5.58,3.9,18,18,0,0,0-3.54,5.34A14.7,14.7,0,0,0,462,52.58Z"/><path class="cls-1" d="M520.57,28.82h10.8v8.76h.24a15.44,15.44,0,0,1,2.88-4.14,19.33,19.33,0,0,1,4-3.18,21.31,21.31,0,0,1,4.86-2.1,18.56,18.56,0,0,1,5.28-.78,15.12,15.12,0,0,1,4.8.72L553,39.74q-1.32-.36-2.64-.6a14.82,14.82,0,0,0-2.64-.24q-7.92,0-12.12,4.44t-4.2,13.8V85.7h-10.8Z"/><path class="cls-1" d="M565,28.82h10.8v8.76H576a15.92,15.92,0,0,1,7.08-7.38,23.44,23.44,0,0,1,11.64-2.82,24.71,24.71,0,0,1,7.86,1.26,17.76,17.76,0,0,1,6.6,3.9,18.84,18.84,0,0,1,4.5,6.78,26,26,0,0,1,1.68,9.78V85.7h-10.8V52.1a19,19,0,0,0-1.08-6.78,12.4,12.4,0,0,0-2.88-4.56,10.84,10.84,0,0,0-4.14-2.52,15.28,15.28,0,0,0-4.86-.78,17.64,17.64,0,0,0-6.24,1.08,13,13,0,0,0-5,3.42A16.13,16.13,0,0,0,577,47.9a27,27,0,0,0-1.2,8.52V85.7H565Z"/><path class="cls-1" d="M631.93,35.78a30.07,30.07,0,0,1,10.56-6.3,36.15,36.15,0,0,1,12-2.1,32.93,32.93,0,0,1,10.74,1.56,20.91,20.91,0,0,1,7.38,4.2,16.6,16.6,0,0,1,4.26,6.06,18.93,18.93,0,0,1,1.38,7.14v29q0,3,.12,5.52t.36,4.8h-9.6q-.36-4.32-.36-8.64h-.24a20.68,20.68,0,0,1-8.52,7.8,26.88,26.88,0,0,1-11.4,2.28,26.17,26.17,0,0,1-7.56-1.08,18.45,18.45,0,0,1-6.3-3.24,15.45,15.45,0,0,1-4.26-5.34,16.54,16.54,0,0,1-1.56-7.38,16.4,16.4,0,0,1,2.46-9.24,18.62,18.62,0,0,1,6.72-6.06,32.42,32.42,0,0,1,10-3.36,69.21,69.21,0,0,1,12.18-1h7.92V48a11.87,11.87,0,0,0-.84-4.32,11.69,11.69,0,0,0-2.52-3.9,12,12,0,0,0-4.2-2.76,16,16,0,0,0-6-1,22.15,22.15,0,0,0-5.46.6,24.2,24.2,0,0,0-4.26,1.5,18.7,18.7,0,0,0-3.48,2.1q-1.56,1.2-3,2.28Zm30.48,22.56a75.81,75.81,0,0,0-7.86.42,30.81,30.81,0,0,0-7.32,1.62,14.11,14.11,0,0,0-5.4,3.36,7.59,7.59,0,0,0-2.1,5.52q0,4.92,3.3,7.08T652,78.5a17.32,17.32,0,0,0,7.56-1.5,14.19,14.19,0,0,0,5-3.9,15.13,15.13,0,0,0,2.76-5.34,21.16,21.16,0,0,0,.84-5.82v-3.6Z"/></g></g></svg>