<?xml version="1.0" encoding="iso-8859-1"?>
<!-- Generator: Adobe Illustrator 19.0.0, SVG Export Plug-In . SVG Version: 6.00 Build 0)  -->
<svg xmlns="http://www.w3.org/2000/svg" xmlns:xlink="http://www.w3.org/1999/xlink" version="1.1" id="Layer_1" x="0px" y="0px" viewBox="0 0 488 488" style="enable-background:new 0 0 488 488;" xml:space="preserve" width="512px" height="512px">
<g>
	<g>
		<path d="M416.5,71.5C370.4,25.4,309.2,0,244,0S117.6,25.4,71.5,71.5C25.4,117.6,0,178.8,0,244s25.4,126.4,71.5,172.5    C117.6,462.6,178.8,488,244,488s126.4-25.4,172.5-71.5C462.6,370.4,488,309.2,488,244S462.6,117.6,416.5,71.5z M244,476    C116.1,476,12,371.9,12,244S116.1,12,244,12s232,104.1,232,232S371.9,476,244,476z" fill="#FFFFFF"/>
	</g>
</g>
<g>
	<g>
		<path d="M295.3,239.8L220,164.5c-2.3-2.3-6.1-2.3-8.5,0c-2.3,2.3-2.3,6.1,0,8.5l71.1,71.1l-71.1,71.1c-2.2,2.2-2.2,6,0.1,8.4    c1.2,1.2,2.7,1.8,4.2,1.8s3.1-0.6,4.2-1.8l75.3-75.3C297.6,246,297.6,242.2,295.3,239.8z" fill="#FFFFFF"/>
	</g>
</g>
<g>
</g>
<g>
</g>
<g>
</g>
<g>
</g>
<g>
</g>
<g>
</g>
<g>
</g>
<g>
</g>
<g>
</g>
<g>
</g>
<g>
</g>
<g>
</g>
<g>
</g>
<g>
</g>
<g>
</g>
</svg>
