<svg xmlns="http://www.w3.org/2000/svg" viewBox="0 0 69.26 152.59"><defs><style>.cls-1{fill:#e6e7e8;}.cls-2{fill:#a9ecf7;}.cls-3{fill:#62d3db;}.cls-4{fill:#fff;}.cls-5{fill:none;}.cls-6{fill:#414042;}</style></defs><title>pin_1</title><g id="Layer_2" data-name="Layer 2"><g id="Layer_1-2" data-name="Layer 1"><ellipse class="cls-1" cx="34.63" cy="146.04" rx="34.63" ry="6.55"/><path class="cls-2" d="M69.26,34.62A34.67,34.67,0,0,1,39.4,68.92L35.06,146h-.43L29.89,68.92a34.62,34.62,0,1,1,39.37-34.3Z"/><path class="cls-3" d="M46.2,54A34,34,0,0,1,6.39,28.34,28.8,28.8,0,0,0,60,47.8,33.91,33.91,0,0,1,46.2,54Z"/><ellipse class="cls-4" cx="44.78" cy="18.71" rx="3.85" ry="7.49" transform="translate(6.19 48.13) rotate(-60)"/><path class="cls-5" d="M34.63,10.06A24.56,24.56,0,1,0,59.19,34.63,24.59,24.59,0,0,0,34.63,10.06Z"/><path class="cls-6" d="M34.63,0a34.62,34.62,0,0,0-4.74,68.92L34.63,146h.43L39.4,68.92A34.62,34.62,0,0,0,34.63,0Zm0,59.19A24.56,24.56,0,1,1,59.19,34.62,24.6,24.6,0,0,1,34.63,59.19Z"/></g></g></svg>